<?xml version="1.0" encoding="UTF-8" standalone="no"?>
<svg width="55px" height="55px" viewBox="0 0 55 55" version="1.1" xmlns="http://www.w3.org/2000/svg" xmlns:xlink="http://www.w3.org/1999/xlink" xmlns:sketch="http://www.bohemiancoding.com/sketch/ns">
    <!-- Generator: Sketch 3.4.2 (15857) - http://www.bohemiancoding.com/sketch -->
    <title>Shape Copy</title>
    <desc>Created with Sketch.</desc>
    <defs></defs>
    <g id="Page-1" stroke="none" stroke-width="1" fill="none" fill-rule="evenodd" sketch:type="MSPage">
        <g id="Desktop-HD-Copy-3" sketch:type="MSArtboardGroup" transform="translate(-757.000000, -637.000000)" fill="#FFFFFF">
            <path d="M784.5,637 C769.294974,637 757,649.294974 757,664.5 C757,679.705026 769.294974,692 784.5,692 C799.705026,692 812,679.705026 812,664.5 C812,649.294974 799.705026,637 784.5,637 L784.5,637 Z M793.521164,670.829365 L790.683862,673.666667 L784.427249,667.410053 L778.170635,673.666667 L775.333333,670.829365 L781.589947,664.572751 L775.333333,658.316138 L778.170635,655.478836 L784.427249,661.73545 L790.683862,655.478836 L793.521164,658.316138 L787.26455,664.572751 L793.521164,670.829365 L793.521164,670.829365 Z" id="Shape-Copy" sketch:type="MSShapeGroup"></path>
        </g>
    </g>
</svg>