<?xml version="1.0" encoding="UTF-8" standalone="no"?>
<svg width="19px" height="19px" viewBox="0 0 19 19" version="1.1" xmlns="http://www.w3.org/2000/svg" xmlns:xlink="http://www.w3.org/1999/xlink" xmlns:sketch="http://www.bohemiancoding.com/sketch/ns">
    <!-- Generator: Sketch 3.4.4 (17249) - http://www.bohemiancoding.com/sketch -->
    <title>Artboard 2</title>
    <desc>Created with Sketch.</desc>
    <defs></defs>
    <g id="Current" stroke="none" stroke-width="1" fill="none" fill-rule="evenodd" sketch:type="MSPage">
        <g id="Artboard-2" sketch:type="MSArtboardGroup" fill="#6E6E6E">
            <path d="M18.3944254,15.9127182 L12.4886217,10.3679681 C13.2869175,9.33369663 13.7643579,8.06650554 13.7643579,6.69379035 C13.7643579,6.62344096 13.754031,6.55602278 13.7422631,6.48905557 C13.7542712,6.42118644 13.7645981,6.35264087 13.7645981,6.28116408 C13.7645981,2.81780908 10.7633038,0 7.074428,0 C7.008864,0 6.94570161,0.00969559017 6.88253922,0.0180383073 C6.8188965,0.00969559017 6.75621443,0 6.69065043,0 C3.00153448,0 0.000240161184,2.81780908 0.000240161184,6.28116408 C0.000240161184,6.35151347 0.0103269309,6.41893165 0.0223349901,6.48612434 C0.0100867697,6.55399347 0,6.62231356 0,6.69379035 C0,10.1571454 3.00105416,12.9751799 6.69017011,12.9751799 C6.75573411,12.9751799 6.81865634,12.9654843 6.88229906,12.9569161 C6.94546145,12.9654843 7.00814352,12.9751799 7.07394768,12.9751799 C8.32470713,12.9751799 9.49261097,12.6450789 10.4950437,12.0816073 L16.4849038,17.705275 C16.748841,17.9530763 17.0941928,18.0766387 17.4397847,18.0766387 C17.7853767,18.0766387 18.1312088,17.9528508 18.3946656,17.705275 C18.9218194,17.210349 18.9218194,16.4078698 18.3944254,15.9127182 L18.3944254,15.9127182 Z M6.88229906,10.4579341 C6.81865634,10.4493659 6.75597427,10.4396703 6.69017011,10.4396703 C4.49029366,10.4396703 2.70061252,8.75940202 2.70061252,6.69401583 C2.70061252,6.62366643 2.69052575,6.55624826 2.67851769,6.48928105 C2.69076591,6.42141191 2.70085268,6.35286635 2.70085268,6.28138955 C2.70085268,4.21600337 4.49077398,2.53573505 6.69065043,2.53573505 C6.75597427,2.53573505 6.8188965,2.52626494 6.88253922,2.51792222 C6.94570161,2.52626494 7.00862384,2.53573505 7.074428,2.53573505 C9.27430445,2.53573505 11.0639856,4.21600337 11.0639856,6.28138955 C11.0639856,6.35173895 11.0743125,6.41915713 11.0860804,6.48634982 C11.0740724,6.55421895 11.0635053,6.62253904 11.0635053,6.69401583 C11.0635053,8.75940202 9.27382413,10.4396703 7.07394768,10.4396703 C7.00814352,10.4396703 6.94522129,10.4493659 6.88229906,10.4579341 L6.88229906,10.4579341 Z" id="Shape" sketch:type="MSShapeGroup"></path>
        </g>
    </g>
</svg>